<svg width="17" height="17" viewBox="0 0 17 17" fill="none" xmlns="http://www.w3.org/2000/svg">
<path d="M15.9141 9.08594L16.8672 3.85938C16.8838 3.76961 16.8798 3.67723 16.8554 3.58925C16.8311 3.50127 16.787 3.41999 16.7266 3.35156C16.6688 3.28092 16.5961 3.22396 16.5137 3.18478C16.4313 3.14561 16.3412 3.12519 16.25 3.125H3.64844L3.26562 1.02344C3.21275 0.73652 3.06117 0.477136 2.83716 0.290222C2.61315 0.103308 2.33081 0.000638202 2.03906 0H0.625C0.45924 0 0.300268 0.065848 0.183058 0.183058C0.065848 0.300268 0 0.45924 0 0.625C0 0.79076 0.065848 0.949732 0.183058 1.06694C0.300268 1.18415 0.45924 1.25 0.625 1.25H2.03906L4.17969 13.0469C3.87449 13.3157 3.65027 13.6643 3.53223 14.0535C3.41418 14.4427 3.40698 14.8571 3.51143 15.2502C3.61588 15.6433 3.82785 15.9994 4.12353 16.2787C4.41921 16.558 4.78689 16.7493 5.18528 16.8311C5.58367 16.913 5.99699 16.8822 6.37883 16.7421C6.76067 16.6021 7.0959 16.3583 7.34688 16.0383C7.59787 15.7183 7.75465 15.3346 7.79964 14.9304C7.84463 14.5261 7.77604 14.1174 7.60156 13.75H11.7734C11.5703 14.1783 11.5118 14.6609 11.6066 15.1253C11.7015 15.5897 11.9446 16.0107 12.2994 16.325C12.6542 16.6393 13.1015 16.8298 13.574 16.8679C14.0464 16.906 14.5185 16.7897 14.9191 16.5363C15.3197 16.283 15.6271 15.9064 15.7952 15.4632C15.9633 15.02 15.9829 14.5342 15.851 14.0789C15.7191 13.6237 15.443 13.2235 15.0641 12.9388C14.6851 12.654 14.224 12.5 13.75 12.5H5.35156L5.00781 10.625H14.0703C14.5092 10.6248 14.934 10.4706 15.2709 10.1894C15.6079 9.90819 15.8354 9.51769 15.9141 9.08594ZM6.5625 14.6875C6.5625 14.8729 6.50752 15.0542 6.4045 15.2083C6.30149 15.3625 6.15507 15.4827 5.98377 15.5536C5.81246 15.6246 5.62396 15.6432 5.4421 15.607C5.26025 15.5708 5.0932 15.4815 4.96209 15.3504C4.83098 15.2193 4.74169 15.0523 4.70551 14.8704C4.66934 14.6885 4.68791 14.5 4.75886 14.3287C4.82982 14.1574 4.94998 14.011 5.10415 13.908C5.25832 13.805 5.43958 13.75 5.625 13.75C5.87364 13.75 6.1121 13.8488 6.28791 14.0246C6.46373 14.2004 6.5625 14.4389 6.5625 14.6875ZM14.6875 14.6875C14.6875 14.8729 14.6325 15.0542 14.5295 15.2083C14.4265 15.3625 14.2801 15.4827 14.1088 15.5536C13.9375 15.6246 13.749 15.6432 13.5671 15.607C13.3852 15.5708 13.2182 15.4815 13.0871 15.3504C12.956 15.2193 12.8667 15.0523 12.8305 14.8704C12.7943 14.6885 12.8129 14.5 12.8839 14.3287C12.9548 14.1574 13.075 14.011 13.2292 13.908C13.3833 13.805 13.5646 13.75 13.75 13.75C13.9986 13.75 14.2371 13.8488 14.4129 14.0246C14.5887 14.2004 14.6875 14.4389 14.6875 14.6875ZM3.875 4.375H15.5L14.6875 8.85938C14.6618 9.00421 14.5857 9.13533 14.4729 9.22964C14.36 9.32396 14.2174 9.37543 14.0703 9.375H4.78125L3.875 4.375Z" fill="#111111"/>
</svg>
