<svg width="17" height="17" viewBox="0 0 17 17" fill="none" xmlns="http://www.w3.org/2000/svg">
<path d="M8.37126 5.87148C7.85832 5.82083 7.34226 5.92995 6.89374 6.18392C6.44522 6.43788 6.08616 6.82427 5.86572 7.29019C5.64528 7.75611 5.57424 8.27877 5.66233 8.78662C5.75041 9.29447 5.99332 9.76268 6.35778 10.1271C6.72225 10.4916 7.19046 10.7345 7.69831 10.8226C8.20616 10.9107 8.72882 10.8396 9.19474 10.6192C9.66066 10.3988 10.047 10.0397 10.301 9.59119C10.555 9.14267 10.6641 8.62661 10.6134 8.11367C10.5557 7.53866 10.3009 7.0013 9.89227 6.59266C9.48363 6.18402 8.94627 5.92924 8.37126 5.87148ZM14.3908 8.35938C14.3892 8.63112 14.3692 8.90244 14.331 9.17148L16.097 10.5566C16.1739 10.6204 16.2258 10.7093 16.2433 10.8077C16.2608 10.906 16.2429 11.0074 16.1927 11.0938L14.522 13.9844C14.4713 14.0699 14.392 14.1348 14.2981 14.1676C14.2042 14.2004 14.1017 14.199 14.0088 14.1637L12.2549 13.4574C12.1581 13.4189 12.0534 13.405 11.9499 13.4169C11.8465 13.4289 11.7477 13.4663 11.6623 13.5258C11.3946 13.7101 11.1133 13.8739 10.8209 14.0156C10.7289 14.0603 10.6494 14.127 10.5893 14.2097C10.5292 14.2924 10.4904 14.3886 10.4763 14.4898L10.2134 16.3605C10.1962 16.4593 10.1451 16.5491 10.069 16.6144C9.99295 16.6797 9.89653 16.7166 9.79626 16.7188H6.45485C6.35623 16.717 6.26114 16.6818 6.18524 16.6188C6.10933 16.5558 6.05714 16.4689 6.03727 16.3723L5.77477 14.5043C5.76003 14.4019 5.72023 14.3048 5.65889 14.2215C5.59756 14.1382 5.5166 14.0714 5.42321 14.027C5.13111 13.886 4.85078 13.7218 4.58493 13.5359C4.49981 13.4767 4.40129 13.4396 4.29826 13.4279C4.19522 13.4163 4.0909 13.4304 3.9947 13.4691L2.24118 14.175C2.14825 14.2104 2.04582 14.2118 1.95193 14.1791C1.85803 14.1464 1.7787 14.0816 1.7279 13.9961L0.057196 11.1055C0.0069667 11.0191 -0.0109831 10.9177 0.00654251 10.8194C0.0240681 10.721 0.0759317 10.6321 0.152899 10.5684L1.64548 9.39648C1.72725 9.33157 1.79152 9.24727 1.83244 9.15122C1.87337 9.05517 1.88967 8.95043 1.87985 8.84648C1.86579 8.68359 1.8572 8.52109 1.8572 8.3582C1.8572 8.19531 1.8654 8.03516 1.87985 7.87578C1.8886 7.77247 1.8715 7.66861 1.83011 7.57355C1.78872 7.47849 1.72433 7.39523 1.64274 7.33125L0.150946 6.15937C0.0752277 6.09535 0.0244568 6.00672 0.00753001 5.90901C-0.00939677 5.81131 0.00860042 5.71077 0.0583679 5.625L1.72907 2.73438C1.77981 2.64882 1.85912 2.58393 1.95302 2.55113C2.04692 2.51833 2.14938 2.51973 2.24235 2.55508L3.99626 3.26133C4.09298 3.29984 4.19774 3.31375 4.30116 3.30182C4.40458 3.28989 4.50342 3.25249 4.58884 3.19297C4.85651 3.00864 5.13779 2.84489 5.43024 2.70312C5.52219 2.65844 5.60171 2.5918 5.6618 2.50909C5.72189 2.42639 5.76069 2.33016 5.77477 2.22891L6.03766 0.358203C6.05493 0.259407 6.10597 0.169674 6.18207 0.104339C6.25816 0.0390038 6.35458 0.00212325 6.45485 0H9.79626C9.89487 0.00170616 9.98997 0.0369535 10.0659 0.0999351C10.1418 0.162917 10.194 0.249875 10.2138 0.346484L10.4763 2.21445C10.4911 2.31682 10.5309 2.41396 10.5922 2.49724C10.6535 2.58052 10.7345 2.64735 10.8279 2.6918C11.12 2.8328 11.4003 2.99699 11.6662 3.18281C11.7513 3.24204 11.8498 3.27915 11.9529 3.29081C12.0559 3.30247 12.1602 3.28831 12.2564 3.24961L14.0099 2.54375C14.1029 2.50836 14.2053 2.50691 14.2992 2.53963C14.3931 2.57236 14.4724 2.63717 14.5232 2.72266L16.1939 5.61328C16.2441 5.69964 16.2621 5.80103 16.2446 5.89939C16.227 5.99775 16.1752 6.08669 16.0982 6.15039L14.6056 7.32227C14.5235 7.38697 14.4589 7.47118 14.4176 7.56724C14.3763 7.6633 14.3597 7.76815 14.3693 7.87227C14.3822 8.03398 14.3908 8.19648 14.3908 8.35938Z" stroke="#111111" stroke-width="1.25" stroke-linecap="round" stroke-linejoin="round"/>
</svg>
